<svg width="235" height="53" viewBox="0 0 235 53" fill="none" xmlns="http://www.w3.org/2000/svg">
<path d="M39.8466 0.82251H11.1761C5.18849 0.82251 0.330566 5.70295 0.330566 11.7184V40.5218C0.330566 46.5373 5.18849 51.4177 11.1761 51.4177H39.8466C45.8342 51.4177 50.6922 46.5373 50.6922 40.5218V11.7184C50.6922 5.69034 45.8342 0.82251 39.8466 0.82251Z" fill="#E14459"/>
<path d="M12.6068 4.1272C12.2302 4.1272 11.8662 4.27852 11.59 4.54335C11.3264 4.80818 11.1758 5.17391 11.1758 5.56485C11.1758 5.94318 11.3264 6.30889 11.59 6.57372C11.8536 6.83855 12.2176 6.98988 12.6068 6.98988C12.9834 6.98988 13.3474 6.83855 13.6236 6.57372C13.8872 6.30889 14.0378 5.94318 14.0378 5.56485C14.0378 5.18652 13.8872 4.8208 13.611 4.55597C13.3474 4.27852 12.9834 4.1272 12.6068 4.1272ZM38.2395 4.1272C37.8629 4.1272 37.4989 4.27852 37.2227 4.54335C36.9591 4.80818 36.8084 5.17391 36.8084 5.56485C36.8084 5.94318 36.9591 6.30889 37.2227 6.57372C37.4863 6.83855 37.8503 6.98988 38.2395 6.98988C38.6161 6.98988 38.9801 6.83855 39.2562 6.57372C39.5199 6.30889 39.6705 5.94318 39.6705 5.56485C39.6705 5.18652 39.5198 4.8208 39.2437 4.55597C38.9801 4.27852 38.6161 4.1272 38.2395 4.1272Z" fill="#C73148"/>
<path d="M12.5438 5.36391C12.0416 5.38913 12.0667 6.12057 12.0667 6.12057C14.7405 11.3541 19.6737 13.9268 25.3476 13.9268C31.0214 13.9142 36.0048 11.3163 38.666 6.09535C38.666 6.09535 38.7664 5.11169 37.7245 5.45219C34.988 10.0174 30.3812 12.7161 25.335 12.7287C20.2888 12.7287 15.6945 10.0552 12.958 5.49002C12.8073 5.38913 12.6567 5.3513 12.5438 5.36391ZM30.6573 25.718L29.1385 30.2706L27.6573 25.718H26.2137L28.5485 32.3388H29.6782L31.2097 27.988L32.7285 32.3388H33.8583L36.1931 25.718H34.7872L33.306 30.2706L31.7871 25.718H30.6573ZM22.5734 25.718L19.6235 32.3388H21.0169L21.5817 31.0525L21.6194 30.9516H24.6948L25.2973 32.3262H26.7283L23.8036 25.7432L23.7785 25.7054H22.5734V25.718ZM43.9633 25.718V32.3388H45.3064V25.718H43.9633ZM5.47656 25.718V32.3388H6.83228V29.6526H9.90768V32.3388H11.2634V25.718H9.90768V28.3915H6.83228V25.718H5.47656ZM17.5649 25.718V29.5139C17.5649 30.5985 17.0251 31.166 16.046 31.166C15.0543 31.166 14.5145 30.5732 14.5145 29.4635V25.718H13.1588V29.5013C13.1588 31.3677 14.2133 32.4271 16.0334 32.4271C17.8787 32.4271 18.9331 31.3425 18.9331 29.4383V25.7054H17.5649V25.718ZM37.2852 25.718V32.3388H42.3439V31.1281H38.6158V29.4887H41.0887V28.278H38.6158V26.9287H42.2059V25.718H37.2852ZM23.1508 27.3953L24.1174 29.6148L24.1801 29.7661H22.1215L22.1842 29.6148L23.1508 27.3953Z" fill="white"/>
<path d="M76.8751 5.56551C76.7873 3.5982 75.3311 1.75699 72.5068 1.75699C69.5694 1.75699 67.7744 3.7243 67.7744 6.88965V8.36514C67.7744 11.4296 69.2556 13.5609 72.4691 13.5609C75.783 13.5609 76.9128 11.2531 76.9128 9.56318V7.2806H72.4943V8.83174H74.9922V9.66407C74.9922 10.8999 73.988 11.8458 72.4817 11.8458C70.6239 11.8458 69.7829 10.446 69.7829 8.36514V6.90227C69.7829 4.51879 70.9628 3.47208 72.4817 3.47208C73.737 3.47208 74.7537 4.1783 74.9295 5.56551H76.8751ZM87.432 11.6566H82.2854V8.36514H87.1182V6.77616H82.2854V3.66125H87.432V1.98399H80.2895V13.3339H87.432V11.6566ZM95.0766 13.3339V3.68647H98.3654V1.98399H89.817V3.68647H93.0933V13.3339H95.0766ZM107.843 13.3339V1.98399H105.834V13.3339H107.843ZM116.027 13.3339V3.68647H119.316V1.98399H110.768V3.68647H114.044V13.3339H116.027ZM128.366 6.92748C128.366 4.63229 129.521 3.45947 131.09 3.45947C132.66 3.45947 133.802 4.63229 133.802 6.92748V8.46602C133.802 10.7612 132.66 11.8458 131.09 11.8458C129.521 11.8458 128.366 10.7612 128.366 8.46602V6.92748ZM126.333 8.45342C126.333 11.6692 128.141 13.5482 131.078 13.5482C134.015 13.5482 135.835 11.6566 135.835 8.45342V6.9401C135.835 3.7243 134.04 1.74438 131.09 1.74438C128.153 1.74438 126.333 3.71169 126.333 6.9401V8.45342ZM141.108 13.3339V5.36373H141.17L146.417 13.3339H148.137V1.98399H146.267V9.9289H146.204L140.982 1.98399H139.25V13.3339H141.108Z" fill="white"/>
<path d="M68.9806 45.7063L71.0016 39.2747H79.186L81.207 45.7063H85.7134L77.6295 21.859H72.8469L64.7378 45.7063H68.9806ZM75.1942 26.1341L78.2948 36.059H71.9305L75.0436 26.1341H75.1942ZM97.5256 45.9459C101.756 45.9459 104.643 42.768 104.643 37.257V35.6302C104.643 30.0687 101.718 26.9538 97.6134 26.9538C95.1154 26.9538 93.2451 28.1645 92.2534 29.9426H92.1028V27.2187H88.0859V51.9362H92.2032V43.0959H92.3538C93.3078 44.811 95.1154 45.9459 97.5256 45.9459ZM96.446 42.5914C93.8225 42.5914 92.1655 40.4728 92.1655 37.0552V35.7689C92.1655 32.427 93.7974 30.321 96.3958 30.321C98.9314 30.321 100.45 32.3009 100.45 35.7941V37.0678C100.45 40.6746 98.831 42.5914 96.446 42.5914ZM117.836 45.9459C122.066 45.9459 124.953 42.768 124.953 37.257V35.6302C124.953 30.0687 122.029 26.9538 117.924 26.9538C115.426 26.9538 113.555 28.1645 112.564 29.9426H112.413V27.2187H108.396V51.9362H112.514V43.0959H112.664C113.606 44.811 115.413 45.9459 117.836 45.9459ZM116.756 42.5914C114.133 42.5914 112.476 40.4728 112.476 37.0552V35.7689C112.476 32.427 114.108 30.321 116.706 30.321C119.242 30.321 120.761 32.3009 120.761 35.7941V37.0678C120.748 40.6746 119.129 42.5914 116.756 42.5914ZM147.008 29.3877C146.82 25.2513 143.77 21.3924 137.832 21.3924C131.682 21.3924 127.891 25.5162 127.891 32.1748V35.2645C127.891 41.696 131.004 46.1856 137.745 46.1856C144.699 46.1856 147.071 41.3429 147.071 37.7993V32.9819H137.807V36.2481H143.054V37.9884C143.054 40.5737 140.945 42.5662 137.782 42.5662C133.866 42.5662 132.108 39.6279 132.108 35.2392V32.1622C132.108 27.1556 134.581 24.9613 137.782 24.9613C140.406 24.9613 142.565 26.4494 142.916 29.3625H147.008V29.3877ZM161.03 43.449H161.193V45.7063H165.084V33.1458C165.084 28.959 161.971 26.9286 157.829 26.9286C152.783 26.9286 150.737 29.64 150.573 32.7675H154.44C154.565 31.1911 155.733 30.1066 157.741 30.1066C159.825 30.1066 161.005 31.2416 161.005 33.2719V34.987H156.41C152.168 34.9996 149.896 37.1057 149.896 40.3971C149.896 43.8399 152.368 45.9838 155.933 45.9838C158.645 45.9838 160.239 44.8488 161.03 43.449ZM157.214 42.8941C155.557 42.8941 154 41.9987 154 40.1323C154 38.6442 155.03 37.6101 157.176 37.6101H161.005V39.6152C161.005 41.5699 159.36 42.8941 157.214 42.8941ZM169.465 45.7063H173.57V20.5979H169.465V45.7063ZM178.265 45.7063H182.37V20.5979H178.265V45.7063ZM194.332 46.0216C198.989 46.0216 201.412 43.2724 201.914 40.2962H198.06C197.621 41.8726 196.29 42.831 194.37 42.831C191.847 42.831 190.215 40.8511 190.215 37.8497V37.3831H202.128V35.605C202.128 30.3588 199.102 26.9286 194.169 26.9286C189.336 26.9286 186.186 30.1948 186.186 35.4536V37.2696C186.186 42.7932 189.361 46.0216 194.332 46.0216ZM190.215 34.5961V34.5582C190.215 32.0234 191.784 30.0561 194.182 30.0561C196.567 30.0561 198.111 32.0108 198.111 34.5582V34.5961H190.215ZM205.755 45.7063H209.948V34.9113C209.948 32.4144 210.99 30.548 214.053 30.548C214.718 30.548 215.408 30.5858 215.76 30.6867V27.0673C215.396 26.9917 214.956 26.9412 214.404 26.9412C211.868 26.9412 210.488 28.5302 210.036 29.6904H209.86V27.2313H205.755V45.7063ZM234.878 27.2187H230.509L226.216 41.7843H226.078L221.835 27.2187H217.291L223.781 45.8072L223.593 46.5513C223.229 48.2285 222.413 49.187 220.166 49.187C219.676 49.187 218.998 49.1365 218.71 49.0861V52.1505C219.174 52.2388 220.141 52.3397 221.019 52.3397C225.45 52.3397 227.057 49.7671 228.225 46.6269L228.689 45.3658C228.739 45.2271 234.878 27.2187 234.878 27.2187Z" fill="white"/>
</svg>
