<svg width="227" height="58" viewBox="0 0 227 58" fill="none" xmlns="http://www.w3.org/2000/svg">
<path fill-rule="evenodd" clip-rule="evenodd" d="M31.6698 0C32.1217 3.1023 30.8664 6.14154 29.2095 8.29802C27.4395 10.6058 24.3767 12.3966 21.4142 12.2957C20.8745 9.31951 22.2553 6.25504 23.9499 4.19946C25.7826 1.92948 28.9584 0.189165 31.6698 0ZM40.5697 43.697C42.1011 41.3388 42.666 40.1533 43.8585 37.505C35.2348 34.2136 33.8414 21.88 42.3898 17.1509C39.7789 13.8721 36.126 11.9678 32.674 11.9678C30.1886 11.9678 28.4814 12.6236 26.9249 13.2163C25.6319 13.7081 24.452 14.1621 23.0084 14.1621C21.4519 14.1621 20.0711 13.6703 18.6275 13.1406C17.0459 12.5731 15.3764 11.9678 13.3052 11.9678C9.42637 11.9678 5.29651 14.3513 2.68554 18.412C-0.992412 24.1374 -0.364765 34.9198 5.59778 44.1006C7.73175 47.3794 10.5812 51.0744 14.3094 51.1123C15.8534 51.1249 16.8827 50.6583 17.9999 50.1664C19.2803 49.5863 20.6611 48.9684 23.0586 48.9558C25.4688 48.9432 26.837 49.5737 28.0923 50.1538C29.1718 50.6583 30.1886 51.1249 31.72 51.0997C35.4356 51.0744 38.4357 46.9885 40.5697 43.697Z" fill="white"/>
<path d="M65.1084 3.41662V13.6315H68.6985C72.0124 13.6315 73.2175 11.4624 73.2175 8.49884C73.2175 5.51004 71.9747 3.40402 68.6985 3.40402H65.1084V3.41662ZM66.916 4.92994H68.4851C70.6567 4.92994 71.3722 6.41803 71.3722 8.53667C71.3722 11.0589 70.3805 12.1182 68.4851 12.1182H66.916V4.92994ZM77.5733 7.86829C77.5733 5.8001 78.6151 4.74078 80.021 4.74078C81.4395 4.74078 82.4688 5.8001 82.4688 7.86829V9.25551C82.4688 11.3237 81.4395 12.3074 80.021 12.3074C78.6151 12.3074 77.5733 11.3237 77.5733 9.25551V7.86829ZM75.7531 9.24289C75.7531 12.1308 77.3724 13.8333 80.021 13.8333C82.6697 13.8333 84.3015 12.1308 84.3015 9.24289V7.8809C84.3015 4.98038 82.6822 3.21484 80.0336 3.21484C77.3975 3.21484 75.7531 4.98038 75.7531 7.8809V9.24289ZM90.6783 13.6315L92.6365 6.2667H92.6993L94.6575 13.6315H96.3019L99.0259 3.41662H97.0928L95.4107 10.9201H95.3354L93.4776 3.41662H91.8583L90.0005 10.9201H89.9377L88.2431 3.41662H86.31L89.0213 13.6315H90.6783ZM103.143 13.6315V6.45587H103.193L107.913 13.6315H109.457V3.41662H107.775V10.567H107.712L103.005 3.41662H101.449V13.6315H103.143ZM119.148 12.0804H114.717V3.41662H112.909V13.6315H119.135V12.0804H119.148ZM122.964 7.86829C122.964 5.8001 124.006 4.74078 125.412 4.74078C126.83 4.74078 127.86 5.8001 127.86 7.86829V9.25551C127.86 11.3237 126.83 12.3074 125.412 12.3074C124.006 12.3074 122.964 11.3237 122.964 9.25551V7.86829ZM121.131 9.24289C121.131 12.1308 122.751 13.8333 125.399 13.8333C128.048 13.8333 129.68 12.1308 129.68 9.24289V7.8809C129.68 4.98038 128.06 3.21484 125.412 3.21484C122.776 3.21484 121.131 4.98038 121.131 7.8809V9.24289ZM133.395 13.6315L134.261 10.8823H137.776L138.642 13.6315H140.575L137.111 3.41662H135.065L131.588 13.6315H133.395ZM136.056 5.24521L137.387 9.4951H134.663L135.994 5.24521H136.056ZM143.048 3.41662V13.6315H146.638C149.952 13.6315 151.157 11.4624 151.157 8.49884C151.157 5.51004 149.915 3.40402 146.638 3.40402H143.048V3.41662ZM144.843 4.92994H146.412C148.584 4.92994 149.3 6.41803 149.3 8.53667C149.3 11.0589 148.308 12.1182 146.412 12.1182H144.843V4.92994ZM159.756 7.86829C159.756 5.8001 160.798 4.74078 162.204 4.74078C163.622 4.74078 164.652 5.8001 164.652 7.86829V9.25551C164.652 11.3237 163.622 12.3074 162.204 12.3074C160.798 12.3074 159.756 11.3237 159.756 9.25551V7.86829ZM157.936 9.24289C157.936 12.1308 159.555 13.8333 162.204 13.8333C164.852 13.8333 166.484 12.1308 166.484 9.24289V7.8809C166.484 4.98038 164.865 3.21484 162.216 3.21484C159.58 3.21484 157.936 4.98038 157.936 7.8809V9.24289ZM171.229 13.6315V6.45587H171.279L175.999 13.6315H177.543V3.41662H175.861V10.567H175.798L171.091 3.41662H169.535V13.6315H171.229ZM189.016 13.6315V4.94254H191.979V3.40402H184.272V4.94254H187.221V13.6315H189.016ZM202.586 13.6315V3.41662H200.778V7.62868H196.247V3.41662H194.439V13.6315H196.247V9.15462H200.778V13.6315H202.586ZM212.465 12.1182H207.833V9.15462H212.189V7.72957H207.833V4.91733H212.465V3.40402H206.038V13.6189H212.465V12.1182Z" fill="white"/>
<path d="M61.7695 51.1116L70.6443 24.9943H75.8788L84.741 51.1116H79.8078L77.5985 44.0747H68.6233L66.414 51.1116H61.7695ZM69.6401 40.5563H76.6069L73.2176 29.6856H73.0419L69.6401 40.5563ZM87.578 57.9468V30.8584H91.9714V33.7842H92.1471C92.5614 32.8131 93.2894 32.0439 94.3188 31.4638C95.3481 30.8711 96.6159 30.581 98.1222 30.581C100.419 30.581 102.252 31.3881 103.62 33.0149C105.001 34.6291 105.692 36.8865 105.692 39.787V42.2209C105.692 45.1215 105.001 47.3662 103.62 48.9804C102.252 50.582 100.394 51.3891 98.0344 51.3891C96.5657 51.3891 95.3481 51.099 94.3815 50.5316C93.415 49.9514 92.6995 49.2074 92.2476 48.2742H92.0593V57.9594H87.578V57.9468ZM92.0718 41.9687C92.0718 43.646 92.4861 45.0206 93.3145 46.1051C94.1556 47.177 95.2728 47.7067 96.6912 47.7067C98.0344 47.7067 99.1139 47.2149 99.9047 46.2186C100.721 45.2097 101.122 43.7469 101.122 41.8426V40.1401C101.122 38.2485 100.721 36.7982 99.9173 35.8019C99.1139 34.7804 98.0093 34.276 96.6034 34.276C95.21 34.276 94.1054 34.7931 93.2895 35.8272C92.4735 36.8486 92.0718 38.2106 92.0718 39.9257V41.9687ZM109.658 57.9468V30.8584H114.052V33.7842H114.227C114.642 32.8131 115.37 32.0439 116.399 31.4638C117.428 30.8711 118.696 30.581 120.203 30.581C122.5 30.581 124.332 31.3881 125.701 33.0149C127.081 34.6291 127.772 36.8865 127.772 39.787V42.2209C127.772 45.1215 127.081 47.3662 125.701 48.9804C124.332 50.582 122.475 51.3891 120.115 51.3891C118.646 51.3891 117.428 51.099 116.462 50.5316C115.495 49.9514 114.78 49.2074 114.328 48.2742H114.14V57.9594H109.658V57.9468ZM114.152 41.9687C114.152 43.646 114.566 45.0206 115.395 46.1051C116.236 47.177 117.353 47.7067 118.772 47.7067C120.115 47.7067 121.194 47.2149 121.985 46.2186C122.801 45.2097 123.203 43.7469 123.203 41.8426V40.1401C123.203 38.2485 122.801 36.7982 121.998 35.8019C121.194 34.7804 120.09 34.276 118.684 34.276C117.29 34.276 116.186 34.7931 115.37 35.8272C114.554 36.8486 114.152 38.2106 114.152 39.9257V41.9687ZM137.601 43.8099H142.082C142.182 44.9701 142.735 45.9412 143.714 46.723C144.705 47.4923 146.061 47.8706 147.768 47.8706C149.4 47.8706 150.668 47.5175 151.572 46.8239C152.501 46.1177 152.965 45.1719 152.965 43.9739C152.965 43.028 152.639 42.2714 151.973 41.7165C151.321 41.149 150.304 40.7076 148.886 40.3545L144.718 39.3456C143.814 39.1439 142.986 38.8664 142.245 38.5007C141.505 38.135 140.827 37.6684 140.212 37.1261C139.596 36.5586 139.132 35.865 138.781 35.0453C138.442 34.213 138.266 33.2797 138.266 32.2456C138.266 30.6314 138.705 29.219 139.584 28.021C140.463 26.8103 141.605 25.9149 143.036 25.3222C144.454 24.7295 146.036 24.4395 147.781 24.4395C149.538 24.4395 151.12 24.7421 152.526 25.3348C153.944 25.9402 155.074 26.8229 155.915 28.0084C156.769 29.1812 157.208 30.5432 157.233 32.1069H152.852C152.764 30.9719 152.275 30.0387 151.409 29.2947C150.53 28.5506 149.312 28.1849 147.756 28.1849C146.3 28.1849 145.12 28.5128 144.228 29.1812C143.35 29.8369 142.91 30.7323 142.91 31.8799C142.91 33.5824 144.103 34.7048 146.488 35.2723L150.681 36.2812C151.722 36.5208 152.639 36.8234 153.43 37.1765C154.22 37.5296 154.936 37.9962 155.576 38.5511C156.241 39.1186 156.744 39.8122 157.082 40.6572C157.421 41.5021 157.597 42.4731 157.597 43.5703C157.597 46.0925 156.668 48.0724 154.81 49.4974C152.965 50.9225 150.517 51.6413 147.454 51.6413C146.049 51.6413 144.768 51.4774 143.626 51.1621C142.496 50.8468 141.567 50.4307 140.827 49.9136C140.099 49.4092 139.496 48.8039 138.994 48.1102C138.504 47.404 138.14 46.7104 137.927 46.0042C137.714 45.298 137.613 44.5539 137.601 43.8099ZM160.045 34.5661V31.0224H162.932V25.9654H167.313V31.0224H171.229V34.5661H167.313V44.9575C167.313 46.0168 167.539 46.7483 167.978 47.1392C168.43 47.5175 169.233 47.7193 170.363 47.7193C170.853 47.7193 171.192 47.7067 171.355 47.6815V51.1116C170.702 51.2125 170.012 51.263 169.259 51.263C167.614 51.263 166.334 51.0486 165.392 50.6324C164.451 50.2163 163.798 49.5983 163.409 48.7786C163.045 47.9463 162.857 46.8365 162.857 45.4241V34.5787H160.045V34.5661ZM173.84 41.6786V40.241C173.84 38.3494 174.167 36.6847 174.807 35.2471C175.472 33.8094 176.489 32.6618 177.87 31.8043C179.251 30.9467 180.933 30.5179 182.903 30.5179C185.853 30.5179 188.088 31.4007 189.632 33.1536C191.176 34.9066 191.954 37.2522 191.954 40.2158V41.666C191.954 44.7053 191.188 47.0888 189.644 48.8417C188.113 50.582 185.866 51.4395 182.903 51.4395C179.941 51.4395 177.694 50.5694 176.138 48.8417C174.606 47.1266 173.84 44.7305 173.84 41.6786ZM178.359 41.5652C178.359 42.4353 178.435 43.2172 178.585 43.936C178.736 44.6548 178.974 45.3106 179.313 45.9285C179.64 46.5339 180.117 47.0005 180.719 47.341C181.334 47.6815 182.062 47.858 182.903 47.858C183.744 47.858 184.46 47.6941 185.075 47.3662C185.69 47.0257 186.155 46.5465 186.468 45.9285C186.795 45.3106 187.033 44.6548 187.171 43.936C187.322 43.2172 187.397 42.4353 187.397 41.5652V40.3923C187.397 39.5096 187.322 38.7151 187.171 37.9962C187.033 37.2774 186.795 36.6216 186.468 36.0037C186.142 35.3858 185.665 34.9192 185.063 34.5913C184.46 34.2508 183.744 34.0742 182.916 34.0742C182.087 34.0742 181.347 34.2508 180.732 34.5913C180.117 34.9318 179.652 35.411 179.326 36.0289C179 36.6343 178.761 37.29 178.598 38.0215C178.447 38.7403 178.372 39.5222 178.372 40.3923V41.5652H178.359ZM196.071 51.1116V30.8711H200.565V33.4941H200.741C201.507 31.5394 203.101 30.5684 205.523 30.5684C206.038 30.5684 206.54 30.6188 207.005 30.7071V34.667C206.691 34.5661 206.063 34.5156 205.134 34.5156C202.134 34.5156 200.64 36.0794 200.64 39.2195V51.1243H196.071V51.1116ZM208.637 41.893V40.1906C208.637 37.227 209.415 34.8813 210.959 33.1536C212.503 31.4007 214.649 30.5306 217.373 30.5306C220.147 30.5306 222.294 31.4007 223.813 33.1536C225.332 34.9066 226.097 37.2396 226.097 40.1779V41.9939H213.068V42.6245C213.068 44.1126 213.457 45.3611 214.248 46.3699C215.038 47.3788 216.156 47.8832 217.624 47.8832C218.779 47.8832 219.683 47.631 220.323 47.114C220.988 46.6095 221.39 45.9538 221.541 45.1845H225.884C225.821 45.7646 225.671 46.3321 225.445 46.887C225.231 47.4545 224.905 48.0094 224.478 48.5768C224.051 49.1443 223.524 49.6236 222.922 50.0523C222.319 50.4685 221.566 50.8216 220.65 51.0864C219.733 51.3387 218.729 51.4648 217.637 51.4648C214.762 51.4648 212.54 50.6198 210.971 48.9173C209.415 47.2023 208.637 44.8692 208.637 41.893ZM213.08 38.9421H221.729V38.9042C221.729 37.454 221.34 36.2685 220.562 35.3606C219.783 34.4526 218.741 33.9986 217.423 33.9986C216.093 33.9986 215.026 34.4526 214.248 35.3732C213.469 36.2812 213.08 37.454 213.08 38.8916V38.9421Z" fill="white"/>
</svg>
