<svg width="283" height="82" viewBox="0 0 283 82" fill="none" xmlns="http://www.w3.org/2000/svg">
<path d="M53.2179 32.1248H60.1938C62.054 32.1248 62.9841 33.0633 62.9841 34.9404V46.2024H60.1938V34.9404H51.8227V46.2024H49.0324V34.9404H40.6614V46.2024H37.8711V34.9404C37.8711 33.0633 38.8012 32.1248 40.6614 32.1248H47.6372C49.4678 32.1248 50.398 32.5941 50.4276 33.5326C50.4572 32.5941 51.3873 32.1248 53.2179 32.1248Z" fill="white"/>
<path d="M68.5646 32.1247H82.5193C84.3795 32.1247 85.3096 33.0632 85.3096 34.9402V43.3867C85.3096 45.2638 84.3795 46.2023 82.5193 46.2023H68.5646C66.7044 46.2023 65.7743 45.2638 65.7743 43.3867V34.9402C65.7743 33.0632 66.7044 32.1247 68.5646 32.1247ZM68.5646 34.9402V43.3867H82.5193V34.9402H68.5646Z" fill="white"/>
<path d="M88.1 32.1247H107.635V34.9402H99.2643V46.2023H96.4739V34.9402H88.1029V32.1247H88.1Z" fill="white"/>
<path d="M113.216 32.1247H127.171C129.031 32.1247 129.961 33.0632 129.961 34.9402V43.3867C129.961 45.2638 129.031 46.2023 127.171 46.2023H113.216C111.356 46.2023 110.426 45.2638 110.426 43.3867V34.9402C110.426 33.0632 111.356 32.1247 113.216 32.1247ZM113.216 34.9402V43.3867H127.171V34.9402H113.216Z" fill="white"/>
<path d="M135.542 46.2023H132.751V32.1247H149.496C151.357 32.1247 152.287 33.0632 152.287 34.9402V37.7557C152.287 39.6327 151.371 40.5712 149.541 40.5712H146.706L152.287 46.2023H148.797L143.217 40.5712H138.332V37.7557H149.493V34.9402H135.539V46.2023H135.542Z" fill="white"/>
<path d="M174.609 34.9402H157.864V37.7557H171.819C173.679 37.7557 174.609 38.6942 174.609 40.5712V43.3867C174.609 45.2638 173.679 46.2023 171.819 46.2023H155.074V43.3867H171.819V40.5712H157.864C156.004 40.5712 155.074 39.6327 155.074 37.7557V34.9402C155.074 33.0632 156.004 32.1247 157.864 32.1247H174.87L174.609 34.9402Z" fill="white"/>
<path d="M43.3213 54.1017V81.6083H37.868V54.1017H43.3213Z" fill="#4C45FF"/>
<path d="M48.7713 81.6082V54.1016L81.4822 72.0229V54.1016H86.9355V81.6082L54.2246 64.0307V81.6082H48.7713Z" fill="#4C45FF"/>
<path d="M92.3887 59.6V54.0975H125.1C128.734 54.0975 130.553 55.9326 130.553 59.6V76.1046C130.553 79.7719 128.734 81.6071 125.1 81.6071H92.3887V76.1046H125.1V59.6H92.3887Z" fill="#4C45FF"/>
<path d="M174.171 59.6H141.46V76.1046H174.171V81.6071H141.46C137.825 81.6071 136.007 79.7749 136.007 76.1046V59.6C136.007 55.9326 137.822 54.0975 141.46 54.0975H174.171V59.6ZM174.171 70.605H146.91V65.1025H174.171V70.605Z" fill="#4C45FF"/>
<path d="M185.074 81.6082H179.621V54.1016H212.332C215.966 54.1016 217.785 55.9368 217.785 59.6041V65.1067C217.785 68.774 215.996 70.6092 212.418 70.6092H206.881L217.785 81.6112H210.969L200.065 70.6092H190.524V65.1067H212.332V59.6041H185.071V81.6082H185.074Z" fill="#4C45FF"/>
<path d="M239.383 81.6083H233.929V59.6042C233.929 55.9369 235.745 54.1017 239.383 54.1017H266.643C270.278 54.1017 272.096 55.9369 272.096 59.6042V81.6083H266.643V70.6063H244.836V65.1038H266.643V59.6012H239.383V81.6053V81.6083Z" fill="#4C45FF"/>
<path d="M283 54.1018V81.6085H277.547V54.1018H283Z" fill="#4C45FF"/>
<path d="M25.5751 32.3496C26.483 32.3496 27.2191 31.607 27.2191 30.6908C27.2191 29.7747 26.483 29.032 25.5751 29.032C24.6671 29.032 23.9311 29.7747 23.9311 30.6908C23.9311 31.607 24.6671 32.3496 25.5751 32.3496Z" stroke="#4C45FF" stroke-width="2" stroke-miterlimit="10"/>
<path d="M32.3818 36.1753C33.2897 36.1753 34.0258 35.4326 34.0258 34.5165C34.0258 33.6003 33.2897 32.8577 32.3818 32.8577C31.4738 32.8577 30.7378 33.6003 30.7378 34.5165C30.7378 35.4326 31.4738 36.1753 32.3818 36.1753Z" stroke="#4C45FF" stroke-width="2" stroke-miterlimit="10"/>
<path d="M28.1421 42.5349C29.05 42.5349 29.7861 41.7922 29.7861 40.876C29.7861 39.9599 29.05 39.2172 28.1421 39.2172C27.2341 39.2172 26.4981 39.9599 26.4981 40.876C26.4981 41.7922 27.2341 42.5349 28.1421 42.5349Z" stroke="#4C45FF" stroke-width="2" stroke-miterlimit="10"/>
<path d="M53.2176 11.124C52.8266 10.2931 52.2697 9.55186 51.5736 8.94213C47.4029 4.72483 42.0533 1.8316 36.206 0.627084C30.3587 -0.577432 24.2804 -0.0394346 18.7472 2.17831C13.2139 4.39605 8.47445 8.18894 5.13612 13.0728C1.79779 17.9566 -0.112793 23.7102 0.0056925 29.5982C0.432241 50.6339 27.0471 81.6077 27.0471 81.6077C29.5738 78.7951 31.046 75.2174 31.2178 71.4634C31.3896 67.7124 30.2521 64.0151 27.992 60.9904L27.056 59.7082C25.8148 57.9208 24.5707 56.002 23.2555 53.9934C21.3627 51.0673 19.621 48.0545 18.0214 44.967C17.9266 45.0776 16.2145 41.4402 14.772 38.4184C13.9278 35.2113 13.4982 32.2703 13.4982 29.6132C13.4982 27.4702 13.9278 25.3451 14.7631 23.3635C15.5954 21.3818 16.8188 19.5825 18.3562 18.0672C19.8935 16.5518 21.7211 15.3503 23.7324 14.5313C25.7437 13.7124 27.8972 13.2909 30.0714 13.2909C32.2812 13.2909 34.4702 13.7243 36.5081 14.5762C38.5431 15.425 40.3856 16.6714 41.9229 18.2405C42.5243 18.9399 43.2648 19.5078 44.0971 19.9113C44.9295 20.3148 45.8389 20.5449 46.766 20.5898C47.6932 20.6316 48.6203 20.4882 49.4882 20.1624C50.3562 19.8366 51.147 19.3374 51.8106 18.6978C52.4741 18.0582 52.9984 17.2901 53.3479 16.4442C53.6974 15.5954 53.8693 14.6867 53.8456 13.7722C53.8248 12.8576 53.6115 11.9549 53.2205 11.124H53.2176Z" fill="#4C45FF"/>
<path d="M14.0285 37.8947L30.7705 35.0313" stroke="#4C45FF" stroke-width="2" stroke-miterlimit="10"/>
<path d="M12.1596 28.7173L17.5448 31.9453L23.9519 30.944" stroke="#4C45FF" stroke-width="2" stroke-miterlimit="10"/>
<path d="M26.1289 41.3288L22.3433 41.9236L18.7117 47.438" stroke="#4C45FF" stroke-width="2" stroke-miterlimit="10"/>
<path d="M227.347 73.4933V74.1808C227.475 74.1808 227.596 74.1808 227.721 74.1808C228.31 74.1808 228.686 74.5574 228.686 75.1492C228.686 75.2717 228.686 75.3913 228.686 75.5258H229.367C229.367 75.4211 229.365 75.3225 229.367 75.2239C229.379 74.9997 229.51 74.8592 229.702 74.8652C229.889 74.8682 230.016 75.0057 230.022 75.2239C230.028 75.4241 230.028 75.6274 230.022 75.8276C230.016 76.0847 229.892 76.2012 229.637 76.2042C229.323 76.2042 229.012 76.2042 228.689 76.2042V76.5509C228.748 76.5509 228.802 76.5599 228.858 76.5599C229.341 76.5599 229.824 76.5599 230.304 76.5599C230.54 76.5599 230.686 76.6824 230.692 76.8797C230.697 77.083 230.543 77.2175 230.304 77.2204C229.827 77.2204 229.35 77.2204 228.873 77.2204C228.817 77.2204 228.76 77.2204 228.692 77.2204V77.5731C228.991 77.5731 229.282 77.5731 229.575 77.5731C229.927 77.5731 230.022 77.6688 230.022 78.0244C230.022 78.1978 230.028 78.3741 230.022 78.5475C230.013 78.7776 229.886 78.9062 229.687 78.9032C229.498 78.9002 229.376 78.7687 229.365 78.5475C229.359 78.4489 229.365 78.3502 229.365 78.2426H228.686C228.677 78.6192 228.728 79.0138 228.42 79.3216C228.114 79.6295 227.729 79.5817 227.347 79.5906V80.2751C227.448 80.2751 227.549 80.2751 227.652 80.2751C227.872 80.281 228.011 80.4156 228.005 80.6158C228.002 80.8101 227.869 80.9326 227.652 80.9356C227.448 80.9356 227.244 80.9356 227.039 80.9356C226.805 80.9326 226.684 80.8071 226.681 80.571C226.678 80.302 226.681 80.033 226.681 79.761C226.681 79.7102 226.678 79.6564 226.675 79.5966H226.002C226.002 79.6624 226.002 79.7221 226.002 79.7849C226.002 80.2601 226.002 80.7384 226.002 81.2136C226.002 81.4318 225.923 81.5573 225.771 81.5991C225.54 81.6619 225.351 81.5184 225.348 81.2524C225.339 80.8758 225.348 80.5022 225.348 80.1256C225.348 79.9553 225.348 79.7879 225.348 79.6026H224.667C224.667 79.749 224.667 79.9015 224.667 80.0539C224.667 80.2332 224.67 80.4126 224.667 80.5919C224.661 80.8011 224.536 80.9296 224.332 80.9326C224.113 80.9386 223.89 80.9356 223.671 80.9326C223.476 80.9296 223.351 80.8041 223.342 80.6218C223.334 80.4335 223.461 80.29 223.656 80.2751C223.766 80.2661 223.876 80.2751 224.009 80.2751C224.009 80.0599 224.012 79.8566 224.003 79.6534C224.003 79.6295 223.938 79.5936 223.902 79.5906C223.76 79.5817 223.618 79.5906 223.479 79.5757C223.008 79.5308 222.676 79.1632 222.664 78.685C222.661 78.5415 222.664 78.401 222.664 78.2307C222.549 78.2307 222.442 78.2307 222.335 78.2307C222.229 78.2307 222.116 78.2307 221.983 78.2307C221.983 78.3413 221.986 78.4399 221.983 78.5385C221.971 78.7717 221.853 78.9032 221.654 78.9032C221.459 78.9032 221.334 78.7717 221.325 78.5385C221.319 78.3383 221.319 78.135 221.325 77.9348C221.334 77.6807 221.45 77.5731 221.701 77.5701C222.015 77.5701 222.329 77.5701 222.655 77.5701V77.2175C222.555 77.2175 222.457 77.2175 222.359 77.2175C221.918 77.2175 221.479 77.2175 221.038 77.2175C220.807 77.2175 220.656 77.083 220.656 76.8857C220.656 76.6884 220.804 76.5569 221.035 76.5569C221.518 76.5569 222.001 76.5569 222.481 76.5569C222.537 76.5569 222.593 76.5569 222.658 76.5569V76.2042C222.403 76.2042 222.149 76.2042 221.894 76.2042C221.382 76.2042 221.325 76.1474 221.325 75.6304C221.325 75.4809 221.319 75.3345 221.331 75.185C221.346 74.9848 221.47 74.8652 221.654 74.8652C221.835 74.8652 221.959 74.9818 221.983 75.179C221.983 75.191 221.983 75.2 221.986 75.2119C222.004 75.4331 222.126 75.5437 222.353 75.5437C222.451 75.5437 222.549 75.5437 222.67 75.5437C222.67 75.1462 222.629 74.7546 222.937 74.4468C223.242 74.1449 223.624 74.1838 224.009 74.1867V73.4993C223.908 73.4993 223.813 73.5023 223.716 73.4993C223.485 73.4903 223.351 73.3708 223.351 73.1705C223.351 72.9673 223.485 72.8388 223.725 72.8328C223.917 72.8268 224.113 72.8268 224.305 72.8328C224.56 72.8417 224.675 72.9643 224.675 73.2213C224.675 73.5322 224.675 73.846 224.675 74.1718H225.348C225.348 74.112 225.357 74.0522 225.357 73.9925C225.357 73.5053 225.357 73.0181 225.357 72.5339C225.357 72.3874 225.395 72.244 225.543 72.1991C225.641 72.1692 225.771 72.1812 225.866 72.223C226.002 72.2798 226.014 72.4293 226.014 72.5638C226.014 73.033 226.014 73.5053 226.014 73.9745C226.014 74.0373 226.014 74.1001 226.014 74.1748H226.696C226.696 73.8699 226.696 73.571 226.696 73.2692C226.696 72.9434 226.805 72.8328 227.131 72.8298C227.309 72.8298 227.487 72.8238 227.664 72.8298C227.892 72.8388 228.023 72.9673 228.02 73.1675C228.02 73.3618 227.889 73.4814 227.67 73.4933C227.572 73.4993 227.472 73.4933 227.359 73.4933H227.347ZM225.674 74.8473C224.998 74.8473 224.323 74.8473 223.648 74.8473C223.399 74.8473 223.319 74.928 223.319 75.1761C223.319 76.3118 223.319 77.4506 223.319 78.5864C223.319 78.8344 223.402 78.9241 223.645 78.9241C224.995 78.9241 226.349 78.9241 227.7 78.9241C227.946 78.9241 228.029 78.8344 228.029 78.5894C228.029 77.4536 228.029 76.3148 228.029 75.179C228.029 74.928 227.949 74.8443 227.703 74.8443C227.027 74.8443 226.352 74.8443 225.677 74.8443L225.674 74.8473Z" fill="#4C45FF"/>
</svg>
