<svg width="232" height="54" viewBox="0 0 232 54" fill="none" xmlns="http://www.w3.org/2000/svg">
<path d="M116.19 29.5007C111.507 29.5007 107.691 33.0317 107.691 37.9122C107.691 42.7422 111.507 46.3237 116.19 46.3237C120.872 46.3237 124.7 42.7548 124.7 37.9122C124.688 33.0317 120.872 29.5007 116.19 29.5007ZM116.19 43.007C113.629 43.007 111.42 40.901 111.42 37.9122C111.42 34.8856 113.629 32.8173 116.19 32.8173C118.75 32.8173 120.972 34.8856 120.972 37.9122C120.972 40.901 118.75 43.007 116.19 43.007ZM97.6492 29.5007C92.967 29.5007 89.151 33.0317 89.151 37.9122C89.151 42.7422 92.967 46.3237 97.6492 46.3237C102.331 46.3237 106.147 42.7548 106.147 37.9122C106.147 33.0317 102.331 29.5007 97.6492 29.5007ZM97.6492 43.007C95.0759 43.007 92.8666 40.901 92.8666 37.9122C92.8666 34.8856 95.0759 32.8173 97.6492 32.8173C100.21 32.8173 102.419 34.8856 102.419 37.9122C102.419 40.901 100.21 43.007 97.6492 43.007ZM75.594 32.0733V35.6422H84.1927C83.9416 37.6347 83.2638 39.1102 82.2344 40.1317C80.9792 41.3676 79.0209 42.7422 75.594 42.7422C70.3093 42.7422 66.1669 38.5049 66.1669 33.2587C66.1669 28.0126 70.3093 23.7627 75.594 23.7627C78.4561 23.7627 80.5398 24.8724 82.0712 26.3101L84.6069 23.7879C82.4604 21.7575 79.5984 20.1812 75.594 20.1812C68.3386 20.1812 62.2505 26.0453 62.2505 33.2461C62.2505 40.447 68.3511 46.3111 75.594 46.3111C79.5105 46.3111 82.4604 45.0374 84.7701 42.6413C87.1426 40.2831 87.8832 36.979 87.8832 34.3054C87.8832 33.4731 87.8079 32.7165 87.6949 32.0733H75.594ZM165.798 34.8477C165.095 32.9687 162.936 29.5007 158.543 29.5007C154.187 29.5007 150.559 32.9056 150.559 37.9122C150.559 42.6161 154.149 46.3237 158.957 46.3237C162.848 46.3237 165.095 43.9655 166.011 42.6035L163.124 40.6992C162.158 42.099 160.852 43.0196 158.957 43.0196C157.074 43.0196 155.718 42.1621 154.852 40.4722L166.175 35.8188L165.798 34.8477ZM154.249 37.6473C154.149 34.4063 156.785 32.7417 158.668 32.7417C160.149 32.7417 161.405 33.4731 161.819 34.5325L154.249 37.6473ZM145.036 45.8066H148.764V21.0891H145.036V45.8066ZM138.948 31.3671H138.822C137.981 30.3834 136.387 29.5007 134.366 29.5007C130.123 29.5007 126.244 33.1957 126.244 37.9374C126.244 42.6539 130.123 46.3111 134.366 46.3111C136.387 46.3111 137.981 45.4157 138.822 44.4068H138.948V45.6175C138.948 48.8333 137.215 50.561 134.429 50.561C132.157 50.561 130.738 48.9342 130.161 47.5596L126.922 48.8963C127.851 51.1285 130.324 53.8651 134.429 53.8651C138.797 53.8651 142.475 51.3176 142.475 45.113V30.0177H138.948V31.3671ZM134.68 43.007C132.119 43.007 129.972 40.8758 129.972 37.9374C129.972 34.9738 132.119 32.8173 134.68 32.8173C137.203 32.8173 139.199 34.9738 139.199 37.9374C139.211 40.8758 137.215 43.007 134.68 43.007ZM183.221 21.0891H174.321V45.8066H178.037V36.4367H183.234C187.364 36.4367 191.406 33.4731 191.406 28.7566C191.393 24.0527 187.338 21.0891 183.221 21.0891ZM183.322 33.0065H178.037V24.532H183.322C186.096 24.532 187.677 26.8145 187.677 28.7692C187.677 30.6735 186.096 33.0065 183.322 33.0065ZM206.268 29.4502C203.582 29.4502 200.795 30.623 199.653 33.2335L202.954 34.6081C203.657 33.2335 204.963 32.7921 206.343 32.7921C208.264 32.7921 210.222 33.9397 210.247 35.9701V36.2349C209.582 35.844 208.138 35.2765 206.368 35.2765C202.816 35.2765 199.201 37.2186 199.201 40.8379C199.201 44.1546 202.113 46.2859 205.377 46.2859C207.875 46.2859 209.256 45.1635 210.122 43.8646H210.247V45.7688H213.837V36.2854C213.837 31.9094 210.536 29.4502 206.268 29.4502ZM205.829 42.9944C204.611 42.9944 202.916 42.4017 202.916 40.901C202.916 38.9841 205.025 38.2527 206.858 38.2527C208.49 38.2527 209.256 38.6058 210.247 39.085C209.959 41.3676 207.975 42.9944 205.829 42.9944ZM226.905 29.9925L222.637 40.6992H222.511L218.093 29.9925H214.088L220.716 44.9617L216.938 53.2976H220.817L231.035 29.9925H226.905ZM193.427 45.8066H197.155V21.0891H193.427V45.8066Z" fill="white"/>
<path d="M116.19 29.5007C111.507 29.5007 107.691 33.0317 107.691 37.9122C107.691 42.7422 111.507 46.3237 116.19 46.3237C120.872 46.3237 124.7 42.7548 124.7 37.9122C124.688 33.0317 120.872 29.5007 116.19 29.5007ZM116.19 43.007C113.629 43.007 111.42 40.901 111.42 37.9122C111.42 34.8856 113.629 32.8173 116.19 32.8173C118.75 32.8173 120.972 34.8856 120.972 37.9122C120.972 40.901 118.75 43.007 116.19 43.007ZM97.6492 29.5007C92.967 29.5007 89.151 33.0317 89.151 37.9122C89.151 42.7422 92.967 46.3237 97.6492 46.3237C102.331 46.3237 106.147 42.7548 106.147 37.9122C106.147 33.0317 102.331 29.5007 97.6492 29.5007ZM97.6492 43.007C95.0759 43.007 92.8666 40.901 92.8666 37.9122C92.8666 34.8856 95.0759 32.8173 97.6492 32.8173C100.21 32.8173 102.419 34.8856 102.419 37.9122C102.419 40.901 100.21 43.007 97.6492 43.007ZM75.594 32.0733V35.6422H84.1927C83.9416 37.6347 83.2638 39.1102 82.2344 40.1317C80.9792 41.3676 79.0209 42.7422 75.594 42.7422C70.3093 42.7422 66.1669 38.5049 66.1669 33.2587C66.1669 28.0126 70.3093 23.7627 75.594 23.7627C78.4561 23.7627 80.5398 24.8724 82.0712 26.3101L84.6069 23.7879C82.4604 21.7575 79.5984 20.1812 75.594 20.1812C68.3386 20.1812 62.2505 26.0453 62.2505 33.2461C62.2505 40.447 68.3511 46.3111 75.594 46.3111C79.5105 46.3111 82.4604 45.0374 84.7701 42.6413C87.1426 40.2831 87.8832 36.979 87.8832 34.3054C87.8832 33.4731 87.8079 32.7165 87.6949 32.0733H75.594ZM165.798 34.8477C165.095 32.9687 162.936 29.5007 158.543 29.5007C154.187 29.5007 150.559 32.9056 150.559 37.9122C150.559 42.6161 154.149 46.3237 158.957 46.3237C162.848 46.3237 165.095 43.9655 166.011 42.6035L163.124 40.6992C162.158 42.099 160.852 43.0196 158.957 43.0196C157.074 43.0196 155.718 42.1621 154.852 40.4722L166.175 35.8188L165.798 34.8477ZM154.249 37.6473C154.149 34.4063 156.785 32.7417 158.668 32.7417C160.149 32.7417 161.405 33.4731 161.819 34.5325L154.249 37.6473ZM145.036 45.8066H148.764V21.0891H145.036V45.8066ZM138.948 31.3671H138.822C137.981 30.3834 136.387 29.5007 134.366 29.5007C130.123 29.5007 126.244 33.1957 126.244 37.9374C126.244 42.6539 130.123 46.3111 134.366 46.3111C136.387 46.3111 137.981 45.4157 138.822 44.4068H138.948V45.6175C138.948 48.8333 137.215 50.561 134.429 50.561C132.157 50.561 130.738 48.9342 130.161 47.5596L126.922 48.8963C127.851 51.1285 130.324 53.8651 134.429 53.8651C138.797 53.8651 142.475 51.3176 142.475 45.113V30.0177H138.948V31.3671ZM134.68 43.007C132.119 43.007 129.972 40.8758 129.972 37.9374C129.972 34.9738 132.119 32.8173 134.68 32.8173C137.203 32.8173 139.199 34.9738 139.199 37.9374C139.211 40.8758 137.215 43.007 134.68 43.007ZM183.221 21.0891H174.321V45.8066H178.037V36.4367H183.234C187.364 36.4367 191.406 33.4731 191.406 28.7566C191.393 24.0527 187.338 21.0891 183.221 21.0891ZM183.322 33.0065H178.037V24.532H183.322C186.096 24.532 187.677 26.8145 187.677 28.7692C187.677 30.6735 186.096 33.0065 183.322 33.0065ZM206.268 29.4502C203.582 29.4502 200.795 30.623 199.653 33.2335L202.954 34.6081C203.657 33.2335 204.963 32.7921 206.343 32.7921C208.264 32.7921 210.222 33.9397 210.247 35.9701V36.2349C209.582 35.844 208.138 35.2765 206.368 35.2765C202.816 35.2765 199.201 37.2186 199.201 40.8379C199.201 44.1546 202.113 46.2859 205.377 46.2859C207.875 46.2859 209.256 45.1635 210.122 43.8646H210.247V45.7688H213.837V36.2854C213.837 31.9094 210.536 29.4502 206.268 29.4502ZM205.829 42.9944C204.611 42.9944 202.916 42.4017 202.916 40.901C202.916 38.9841 205.025 38.2527 206.858 38.2527C208.49 38.2527 209.256 38.6058 210.247 39.085C209.959 41.3676 207.975 42.9944 205.829 42.9944ZM226.905 29.9925L222.637 40.6992H222.511L218.093 29.9925H214.088L220.716 44.9617L216.938 53.2976H220.817L231.035 29.9925H226.905ZM193.427 45.8066H197.155V21.0891H193.427V45.8066Z" stroke="white" stroke-width="0.1351" stroke-linecap="round" stroke-linejoin="round"/>
<path d="M1.30634 1.4067C0.716363 2.01202 0.377441 2.95786 0.377441 4.18112V47.9033C0.377441 49.1266 0.716363 50.0724 1.30634 50.6778L1.44442 50.8165L26.1105 26.326V25.7459L1.44442 1.25537L1.30634 1.4067Z" fill="url(#paint0_linear_1_1410)"/>
<path d="M34.3452 34.4976L26.1357 26.3257V25.7457L34.3578 17.5737L34.5461 17.6746L44.287 23.173C47.0611 24.7368 47.0611 27.3094 44.287 28.8731L34.5461 34.3715L34.3452 34.4976Z" fill="url(#paint1_linear_1_1410)"/>
<path d="M34.5337 34.3831L26.1234 26.0347L1.30664 50.6765C2.23554 51.6349 3.72932 51.7611 5.44905 50.79L34.5337 34.3831Z" fill="url(#paint2_linear_1_1410)"/>
<path d="M34.5337 17.6863L5.44905 1.27948C3.74187 0.32105 2.23554 0.447148 1.30664 1.40558L26.1234 26.0348L34.5337 17.6863Z" fill="url(#paint3_linear_1_1410)"/>
<path d="M64.7856 6.66258V5.1871C64.7856 3.59812 65.2124 2.34963 66.0535 1.44164C66.907 0.521038 68.0619 0.0544434 69.518 0.0544434C70.2084 0.0544434 70.8235 0.155331 71.3758 0.369718C71.9282 0.584104 72.3926 0.861536 72.7441 1.22725C73.0956 1.58036 73.3717 1.98392 73.56 2.43792C73.7608 2.89191 73.8738 3.35852 73.8864 3.86296H71.9281C71.8403 3.19458 71.5767 2.67752 71.1373 2.3118C70.6854 1.94608 70.1457 1.75691 69.4929 1.75691C68.6895 1.75691 68.0368 2.04697 67.5347 2.61447C67.0326 3.18196 66.7941 4.0395 66.7941 5.1871V6.64997C66.7941 7.73452 67.02 8.59206 67.4594 9.21C67.9113 9.82794 68.5891 10.1306 69.4929 10.1306C70.2335 10.1306 70.8486 9.92883 71.3005 9.51267C71.7649 9.09651 71.9909 8.57945 71.9909 7.9489V7.1292H69.4929V5.56543H73.9115V7.84801C73.9115 8.20112 73.8613 8.55424 73.7734 8.90735C73.6855 9.26046 73.5223 9.61355 73.2964 9.97927C73.0704 10.3324 72.7943 10.6477 72.4679 10.9251C72.1415 11.1899 71.7147 11.4169 71.1875 11.5935C70.6729 11.7574 70.0954 11.8457 69.4678 11.8457C67.9113 11.8457 66.7439 11.3791 65.953 10.4459C65.1748 9.51266 64.7856 8.25156 64.7856 6.66258ZM77.3133 11.6313V0.281432H84.4558V1.95869H79.3091V5.0736H84.142V6.66258H79.3091V9.95404H84.4558V11.6313H77.3133ZM86.8282 1.98392V0.281432H95.3767V1.98392H92.0878V11.6313H90.1045V1.98392H86.8282ZM102.846 11.6313V0.281432H104.854V11.6313H102.846ZM107.616 1.98392V0.281432H116.164V1.98392H112.875V11.6313H110.892V1.98392H107.616ZM123.181 6.76347V5.25016C123.181 3.63595 123.608 2.37486 124.461 1.45426C125.315 0.533661 126.47 0.0670474 127.938 0.0670474C129.407 0.0670474 130.562 0.533661 131.403 1.45426C132.244 2.37486 132.671 3.64856 132.671 5.25016V6.76347C132.671 8.36506 132.244 9.61355 131.39 10.5089C130.549 11.4043 129.382 11.8583 127.901 11.8583C126.432 11.8583 125.265 11.4043 124.436 10.5089C123.608 9.61355 123.181 8.36506 123.181 6.76347ZM125.202 6.76347C125.202 7.87323 125.453 8.71817 125.943 9.28566C126.445 9.85316 127.097 10.1432 127.926 10.1432C128.742 10.1432 129.395 9.85316 129.897 9.28566C130.399 8.70556 130.637 7.86062 130.637 6.76347V5.22493C130.637 4.11516 130.386 3.25763 129.884 2.6523C129.382 2.05958 128.729 1.75691 127.926 1.75691C127.11 1.75691 126.445 2.05958 125.943 2.6523C125.44 3.25763 125.202 4.11516 125.202 5.22493V6.76347ZM136.073 11.6313V0.281432H137.805L143.002 8.22635H143.064V0.281432H144.973V11.6313H143.253L138.043 3.66118H137.981V11.6313H136.073Z" fill="white"/>
<defs>
<linearGradient id="paint0_linear_1_1410" x1="23.8169" y1="48.4786" x2="-9.35843" y2="15.0681" gradientUnits="userSpaceOnUse">
<stop offset="1e-05" stop-color="#00A0FF"/>
<stop offset="0.0066" stop-color="#00A1FF"/>
<stop offset="0.2601" stop-color="#00BEFF"/>
<stop offset="0.5122" stop-color="#00D2FF"/>
<stop offset="0.7604" stop-color="#00DFFF"/>
<stop offset="1" stop-color="#00E3FF"/>
</linearGradient>
<linearGradient id="paint1_linear_1_1410" x1="47.8973" y1="26.039" x2="-0.275963" y2="26.039" gradientUnits="userSpaceOnUse">
<stop offset="1e-05" stop-color="#FFE000"/>
<stop offset="0.4087" stop-color="#FFBD00"/>
<stop offset="0.7754" stop-color="#FFA500"/>
<stop offset="1" stop-color="#FF9C00"/>
</linearGradient>
<linearGradient id="paint2_linear_1_1410" x1="13.4062" y1="37.9413" x2="-31.5825" y2="-7.36711" gradientUnits="userSpaceOnUse">
<stop offset="1e-05" stop-color="#FF3A44"/>
<stop offset="1" stop-color="#C31162"/>
</linearGradient>
<linearGradient id="paint3_linear_1_1410" x1="-21.0813" y1="49.1924" x2="-0.991781" y2="28.9612" gradientUnits="userSpaceOnUse">
<stop offset="1e-05" stop-color="#32A071"/>
<stop offset="0.0685" stop-color="#2DA771"/>
<stop offset="0.4762" stop-color="#15CF74"/>
<stop offset="0.8009" stop-color="#06E775"/>
<stop offset="1" stop-color="#00F076"/>
</linearGradient>
</defs>
</svg>
